<svg xmlns="http://www.w3.org/2000/svg" viewBox="0 0 960 640" role="img" aria-label="Map with expandable housing pins">
  <defs>
    <linearGradient id="frame" x1="0" y1="0" x2="0" y2="1">
      <stop offset="0%" stop-color="#f4f7fa"/>
      <stop offset="100%" stop-color="#e8edf2"/>
    </linearGradient>
    <linearGradient id="map" x1="0" y1="0" x2="1" y2="1">
      <stop offset="0%" stop-color="#e8efe6"/>
      <stop offset="100%" stop-color="#d9e4df"/>
    </linearGradient>
    <filter id="card" x="-15%" y="-15%" width="130%" height="140%">
      <feDropShadow dx="0" dy="12" stdDeviation="14" flood-color="#0f172a" flood-opacity="0.16"/>
    </filter>
    <filter id="pin" x="-30%" y="-30%" width="160%" height="160%">
      <feDropShadow dx="0" dy="4" stdDeviation="5" flood-color="#0f172a" flood-opacity="0.2"/>
    </filter>
  </defs>
  <rect width="960" height="640" rx="28" fill="url(#frame)"/>
  <rect x="24" y="24" width="912" height="592" rx="20" fill="url(#map)"/>
  <g opacity="0.35" stroke="#9ab0a0" stroke-width="1">
    <path d="M24 120 H936 M24 200 H936 M24 280 H936 M24 360 H936 M24 440 H936 M24 520 H936"/>
    <path d="M104 24 V616 M184 24 V616 M264 24 V616 M344 24 V616 M424 24 V616 M504 24 V616 M584 24 V616 M664 24 V616 M744 24 V616 M824 24 V616"/>
  </g>
  <path d="M40 480 C160 430, 280 500, 400 460 S600 390, 720 430 S860 490, 920 470" fill="none" stroke="#7eb0cc" stroke-width="22" opacity="0.5" stroke-linecap="round"/>
  <g fill="#c5d4c8" opacity="0.45">
    <rect x="100" y="300" width="44" height="80" rx="3"/>
    <rect x="160" y="260" width="36" height="110" rx="3"/>
    <rect x="520" y="240" width="50" height="100" rx="3"/>
    <rect x="600" y="280" width="40" height="80" rx="3"/>
    <rect x="680" y="220" width="64" height="120" rx="3"/>
  </g>
  <g filter="url(#pin)">
    <circle cx="580" cy="220" r="24" fill="#1d4ed8"/>
    <circle cx="580" cy="220" r="9" fill="#fff"/>
  </g>
  <g filter="url(#pin)" font-family="system-ui, sans-serif">
    <g transform="translate(200, 280)">
      <rect width="72" height="30" rx="15" fill="#fff" stroke="#c9d2dc" stroke-width="1.5"/>
      <text x="36" y="20" text-anchor="middle" fill="#12151a" font-size="13" font-weight="700">&#8364;620</text>
      <polygon points="36,30 30,38 42,38" fill="#fff" stroke="#c9d2dc" stroke-width="1"/>
    </g>
    <g transform="translate(380, 240)">
      <rect width="72" height="30" rx="15" fill="#fff" stroke="#5daca3" stroke-width="1.5"/>
      <text x="36" y="20" text-anchor="middle" fill="#0f766e" font-size="13" font-weight="700">&#8364;450</text>
      <polygon points="36,30 30,38 42,38" fill="#fff" stroke="#5daca3" stroke-width="1"/>
    </g>
  </g>
  <g filter="url(#card)" transform="translate(620, 300)">
    <rect width="220" height="118" rx="14" fill="#fff" stroke="#d3dae2"/>
    <text x="16" y="32" fill="#12151a" font-size="14" font-weight="700" font-family="system-ui, sans-serif">Room in 3er WG</text>
    <text x="16" y="54" fill="#64748b" font-size="12" font-family="system-ui, sans-serif">Shared flat &#183; all-in</text>
    <text x="16" y="92" fill="#0f766e" font-size="24" font-weight="800" font-family="system-ui, sans-serif">&#8364;450</text>
    <polygon points="110,118 102,130 118,130" fill="#fff" stroke="#d3dae2"/>
  </g>
  <g transform="translate(48, 480)">
    <rect width="96" height="108" rx="14" fill="#fff" opacity="0.96" filter="url(#pin)"/>
    <rect x="10" y="12" width="76" height="26" rx="8" fill="#d61f3c"/>
    <text x="48" y="30" text-anchor="middle" fill="#fff" font-size="11" font-weight="700" font-family="system-ui, sans-serif">Streets</text>
    <text x="48" y="58" text-anchor="middle" fill="#12151a" font-size="11" font-weight="600" font-family="system-ui, sans-serif">Satellite</text>
    <text x="48" y="82" text-anchor="middle" fill="#12151a" font-size="11" font-weight="600" font-family="system-ui, sans-serif">Terrain</text>
  </g>
</svg>
